<mxfile host="app.diagrams.net" modified="2023-10-16T18:43:20.698Z" agent="Mozilla/5.0 (X11; Linux x86_64) AppleWebKit/537.36 (KHTML, like Gecko) Chrome/118.0.0.0 Safari/537.36" etag="oj3y7lNF4rC1zrdZoncw" version="22.0.4" type="google">
  <diagram name="Страница — 1" id="y4xzhwN29KWo9kaKiG93">
    <mxGraphModel grid="1" page="1" gridSize="10" guides="1" tooltips="1" connect="1" arrows="1" fold="1" pageScale="1" pageWidth="827" pageHeight="1169" math="0" shadow="0">
      <root>
        <mxCell id="0" />
        <mxCell id="1" parent="0" />
        <mxCell id="YecXGJ-e3PZKIjaYAuMw-1" value="&lt;font style=&quot;font-size: 13px;&quot;&gt;Составьте блок-схему&lt;br&gt;нахождения всех четных&amp;nbsp;чисел от 1 до 15&lt;/font&gt;" style="text;whiteSpace=wrap;html=1;" vertex="1" parent="1">
          <mxGeometry x="10" y="10" width="190" height="70" as="geometry" />
        </mxCell>
        <mxCell id="YecXGJ-e3PZKIjaYAuMw-38" value="" style="edgeStyle=orthogonalEdgeStyle;rounded=0;orthogonalLoop=1;jettySize=auto;html=1;" edge="1" parent="1" source="YecXGJ-e3PZKIjaYAuMw-2" target="YecXGJ-e3PZKIjaYAuMw-37">
          <mxGeometry relative="1" as="geometry" />
        </mxCell>
        <mxCell id="YecXGJ-e3PZKIjaYAuMw-2" value="Start" style="ellipse;whiteSpace=wrap;html=1;" vertex="1" parent="1">
          <mxGeometry x="360" y="20" width="120" height="80" as="geometry" />
        </mxCell>
        <mxCell id="YecXGJ-e3PZKIjaYAuMw-8" value="" style="edgeStyle=orthogonalEdgeStyle;rounded=0;orthogonalLoop=1;jettySize=auto;html=1;" edge="1" parent="1" source="YecXGJ-e3PZKIjaYAuMw-5">
          <mxGeometry relative="1" as="geometry">
            <mxPoint x="290" y="290" as="targetPoint" />
          </mxGeometry>
        </mxCell>
        <mxCell id="YecXGJ-e3PZKIjaYAuMw-11" value="No" style="edgeLabel;html=1;align=center;verticalAlign=middle;resizable=0;points=[];" connectable="0" vertex="1" parent="YecXGJ-e3PZKIjaYAuMw-8">
          <mxGeometry x="-0.0667" y="2" relative="1" as="geometry">
            <mxPoint y="-12" as="offset" />
          </mxGeometry>
        </mxCell>
        <mxCell id="YecXGJ-e3PZKIjaYAuMw-10" value="" style="edgeStyle=orthogonalEdgeStyle;rounded=0;orthogonalLoop=1;jettySize=auto;html=1;" edge="1" parent="1" source="YecXGJ-e3PZKIjaYAuMw-5">
          <mxGeometry relative="1" as="geometry">
            <mxPoint x="550" y="290" as="targetPoint" />
          </mxGeometry>
        </mxCell>
        <mxCell id="YecXGJ-e3PZKIjaYAuMw-12" value="Yes" style="edgeLabel;html=1;align=center;verticalAlign=middle;resizable=0;points=[];" connectable="0" vertex="1" parent="YecXGJ-e3PZKIjaYAuMw-10">
          <mxGeometry x="-0.1667" y="-2" relative="1" as="geometry">
            <mxPoint x="5" y="-12" as="offset" />
          </mxGeometry>
        </mxCell>
        <mxCell id="YecXGJ-e3PZKIjaYAuMw-5" value="count &amp;lt; 15" style="rhombus;whiteSpace=wrap;html=1;" vertex="1" parent="1">
          <mxGeometry x="370" y="250" width="100" height="80" as="geometry" />
        </mxCell>
        <mxCell id="YecXGJ-e3PZKIjaYAuMw-39" value="" style="edgeStyle=orthogonalEdgeStyle;rounded=0;orthogonalLoop=1;jettySize=auto;html=1;" edge="1" parent="1" source="YecXGJ-e3PZKIjaYAuMw-37" target="YecXGJ-e3PZKIjaYAuMw-5">
          <mxGeometry relative="1" as="geometry" />
        </mxCell>
        <mxCell id="YecXGJ-e3PZKIjaYAuMw-37" value="сount = 2&lt;br style=&quot;border-color: var(--border-color);&quot;&gt;sum = 0" style="whiteSpace=wrap;html=1;" vertex="1" parent="1">
          <mxGeometry x="360" y="140" width="120" height="60" as="geometry" />
        </mxCell>
        <mxCell id="YecXGJ-e3PZKIjaYAuMw-43" style="edgeStyle=orthogonalEdgeStyle;rounded=0;orthogonalLoop=1;jettySize=auto;html=1;" edge="1" parent="1" source="YecXGJ-e3PZKIjaYAuMw-42">
          <mxGeometry relative="1" as="geometry">
            <mxPoint x="420" y="250" as="targetPoint" />
            <Array as="points">
              <mxPoint x="610" y="220" />
              <mxPoint x="421" y="220" />
            </Array>
          </mxGeometry>
        </mxCell>
        <mxCell id="YecXGJ-e3PZKIjaYAuMw-42" value="sum = sum + count&lt;br&gt;count = count + 2" style="rounded=0;whiteSpace=wrap;html=1;" vertex="1" parent="1">
          <mxGeometry x="550" y="260" width="120" height="60" as="geometry" />
        </mxCell>
        <mxCell id="YecXGJ-e3PZKIjaYAuMw-46" value="" style="edgeStyle=orthogonalEdgeStyle;rounded=0;orthogonalLoop=1;jettySize=auto;html=1;" edge="1" parent="1" source="YecXGJ-e3PZKIjaYAuMw-44" target="YecXGJ-e3PZKIjaYAuMw-45">
          <mxGeometry relative="1" as="geometry" />
        </mxCell>
        <mxCell id="YecXGJ-e3PZKIjaYAuMw-44" value="sum" style="shape=document;whiteSpace=wrap;html=1;boundedLbl=1;" vertex="1" parent="1">
          <mxGeometry x="170" y="250" width="120" height="80" as="geometry" />
        </mxCell>
        <mxCell id="YecXGJ-e3PZKIjaYAuMw-45" value="End" style="ellipse;whiteSpace=wrap;html=1;" vertex="1" parent="1">
          <mxGeometry x="190" y="410" width="80" height="80" as="geometry" />
        </mxCell>
      </root>
    </mxGraphModel>
  </diagram>
</mxfile>
